Coordinates
version=1
nRows=12
nColumns=42
inDegrees=yes

Units are S.I. units (second, meters, Newtons, ...)
If the header above contains a line with 'inDegrees', this indicates whether rotational values are in degrees (yes) or radians (no).

endheader
time	pelvis_tilt	pelvis_list	pelvis_rotation	pelvis_tx	pelvis_ty	pelvis_tz	hip_flexion_r	hip_adduction_r	hip_rotation_r	knee_angle_r	knee_adduction_r	knee_angle_r_beta	ankle_angle_r	subtalar_angle_r	mtp_angle_r	hip_flexion_l	hip_adduction_l	hip_rotation_l	knee_angle_l	knee_adduction_l	knee_angle_l_beta	ankle_angle_l	subtalar_angle_l	mtp_angle_l	lumbar_extension	lumbar_bending	lumbar_rotation	arm_flex_r	arm_add_r	arm_rot_r	elbow_flex_r	pro_sup_r	wrist_flex_r	wrist_dev_r	arm_flex_l	arm_add_l	arm_rot_l	elbow_flex_l	pro_sup_l	wrist_flex_l	wrist_dev_l
      0.98000000	     -0.70732245	      2.23564217	      0.84841108	     -0.95125802	      0.89041876	     -0.22342842	     -1.70607475	    -12.43119561	     -1.39665049	     53.84688137	     12.20911593	      0.93980537	     -5.84174345	     -3.58569097	     -7.61306136	     14.69632045	     -3.37791414	     -3.56494182	     18.51223484	     16.53616385	      0.32309945	      6.40875673	     -1.22641321	     -7.61306136	    -11.63497464	     -1.73398111	      2.30198482	     -2.47530413	    -13.98487612	     -2.98108617	     17.78941894	     90.00000001	      0.00000000	      0.00000000	    -10.36788101	     -9.14970969	      2.26565341	     19.59737314	     90.00000001	      0.00000000	      0.00000000
      0.99000000	     -0.73049429	      1.97806208	      0.82658281	     -0.94056083	      0.89216437	     -0.22419443	      0.13622970	    -12.03202297	     -1.13429421	     55.53196615	     11.72855007	      0.96921565	     -4.25117575	     -4.52495127	     -7.61035825	     13.62572449	     -3.62558829	     -3.54203344	     17.90755739	     16.62964090	      0.31254584	      6.95930935	     -0.59940793	     -7.61035825	    -11.63551094	     -1.39439888	      2.20038786	     -2.51525757	    -14.01708591	     -3.00943049	     17.71896354	     90.00000001	      0.00000000	      0.00000000	    -10.01659081	     -9.37775196	      2.17884090	     19.83748479	     90.00000001	      0.00000000	      0.00000000
      1.00000000	     -0.63247713	      1.68128001	      0.90523605	     -0.92994032	      0.89400547	     -0.22493685	      1.74737989	    -11.57402949	     -1.13174245	     56.84544491	     11.25203112	      0.99214018	     -2.41099666	     -5.28308353	     -7.60851634	     12.47149100	     -3.90690827	     -3.50590958	     17.37901088	     16.68766287	      0.30332096	      7.41271879	     -0.07190332	     -7.60851634	    -11.77510815	     -1.00020178	      2.00529054	     -2.54208685	    -14.02994540	     -3.03215055	     17.68268561	     90.00000001	      0.00000000	      0.00000000	     -9.63995119	     -9.62260169	      2.11435980	     20.08630814	     90.00000001	      0.00000000	      0.00000000
      1.01000000	     -0.67425190	      1.35575998	      0.98028484	     -0.91902718	      0.89557186	     -0.22573066	      3.42804893	    -11.12787826	     -1.34314539	     57.79060133	     10.76483901	      1.00863627	     -0.56941958	     -5.83051746	     -7.60629808	     11.32016223	     -4.25987307	     -3.48130096	     16.56953014	     16.84277259	      0.28919286	      7.93055690	      0.55303353	     -7.60629808	    -11.68315165	     -0.55220763	      1.80333010	     -2.62147756	    -14.04900483	     -3.11220305	     17.57543622	     90.00000001	      0.00000000	      0.00000000	     -9.36655578	     -9.83206661	      2.03294172	     20.31840009	     90.00000001	      0.00000000	      0.00000000
      1.02000000	     -0.56959723	      1.02616355	      1.19515267	     -0.90846788	      0.89723623	     -0.22665239	      4.88460842	    -10.64841172	     -1.62920463	     58.42405064	     10.34874758	      1.01969205	      1.24110195	     -6.21633127	     -7.60465733	     10.16303275	     -4.53008611	     -3.36445502	     15.99945057	     16.83000117	      0.27924309	      8.31689288	      1.09607075	     -7.60465733	    -11.81877105	     -0.07020951	      1.44821030	     -2.63477230	    -14.06962984	     -3.18058206	     17.55755759	     90.00000001	      0.00000000	      0.00000000	     -9.01032434	    -10.07418913	      1.98589034	     20.56725763	     90.00000001	      0.00000000	      0.00000000
      1.03000000	     -0.51611667	      0.66740361	      1.50188212	     -0.89750734	      0.89870449	     -0.22763131	      6.22916506	    -10.19538891	     -2.16125463	     58.62556755	     10.00153163	      1.02320918	      3.07407393	     -6.44967659	     -7.60303799	      8.96413762	     -4.87202629	     -3.22634972	     15.25239008	     16.90411104	      0.26620443	      8.78885443	      1.73002463	     -7.60303799	    -11.80850953	      0.46031115	      1.00542070	     -2.71997786	    -14.07102150	     -3.28497081	     17.48457385	     90.00000001	      0.00000000	      0.00000000	     -8.75381787	    -10.29819798	      1.94672316	     20.79969588	     90.00000001	      0.00000000	      0.00000000
      1.04000000	     -0.40337707	      0.27952893	      1.96417730	     -0.88634275	      0.90008422	     -0.22870943	      7.34429514	     -9.74546522	     -2.89713756	     58.42495046	      9.73587065	      1.01970775	      4.84049794	     -6.47319341	     -7.60135290	      7.69799461	     -5.24591472	     -2.93080503	     14.45539375	     16.99606215	      0.25229422	      9.31257007	      2.43849510	     -7.60135290	    -11.81902642	      1.04593683	      0.43144678	     -2.83692352	    -14.04919754	     -3.43995308	     17.39206264	     90.00000001	      0.00000000	      0.00000000	     -8.51628428	    -10.54583423	      1.92158209	     21.03603243	     90.00000001	      0.00000000	      0.00000000
      1.05000000	      0.32923422	     -0.31306093	      2.78093936	     -0.87446632	      0.90212616	     -0.22990604	      7.40222991	     -9.06627255	     -4.58749643	     57.56173929	      9.12470451	      1.00464187	      6.35498445	     -5.39185281	     -7.59687011	      5.61613645	     -5.95022350	     -2.11347427	     13.27703683	     17.29253510	      0.23172801	      9.90236617	      3.21868829	     -7.59687011	    -12.44038213	      1.91875360	     -0.42780922	     -2.91931302	    -13.96551225	     -3.96722008	     17.26915558	     90.00000001	      0.00000000	      0.00000000	     -8.29324109	    -10.84136900	      1.94484341	     21.36919694	     90.00000001	      0.00000000	      0.00000000
      1.06000000	      0.66574420	     -0.74829902	      3.56868763	     -0.86296930	      0.90340155	     -0.23136447	      7.97787545	     -8.67498865	     -5.80503963	     56.65846888	      8.98182862	      0.98887683	      7.83129993	     -4.98578667	     -7.59254981	      4.13831546	     -6.41094535	     -1.52731554	     12.41953223	     17.37415234	      0.21676173	     10.36514023	      3.69272802	     -7.59254981	    -12.61245556	      2.64013031	     -1.29577060	     -3.07724052	    -13.93246047	     -4.25118813	     17.20737475	     90.00000001	      0.00000000	      0.00000000	     -8.09904675	    -11.10470802	      2.03262057	     21.62859271	     90.00000001	      0.00000000	      0.00000000
      1.07000000	      0.98273654	     -1.17938921	      4.44112116	     -0.85137280	      0.90444763	     -0.23288396	      8.44734907	     -8.33080693	     -6.98386625	     55.41820239	      9.03830860	      0.96723010	      9.08856926	     -4.82633906	     -7.58892138	      2.73717197	     -6.89628084	     -0.88747018	     11.62482495	     17.44490088	      0.20289147	     10.89386141	      4.24075716	     -7.58892138	    -12.72028629	      3.37277410	     -2.23964882	     -3.25959823	    -13.89147895	     -4.51086505	     17.14449082	     90.00000001	      0.00000000	      0.00000000	     -7.92765606	    -11.37087522	      2.13065080	     21.87204072	     90.00000001	      0.00000000	      0.00000000
      1.08000000	      1.36095312	     -1.61098459	      5.36455707	     -0.83974184	      0.90535399	     -0.23436681	      8.78792533	     -7.96656185	     -8.20648402	     53.94052570	      9.10047232	      0.94143977	     10.20918839	     -4.78504803	     -7.58499629	      1.28738529	     -7.44335939	     -0.25789483	     10.82481168	     17.52578575	      0.18892860	     11.36133957	      4.70072681	     -7.58499629	    -12.86458955	      4.11481702	     -3.24374415	     -3.45057555	    -13.82842129	     -4.81705180	     17.11372815	     90.00000001	      0.00000000	      0.00000000	     -7.76278047	    -11.64992811	      2.26965063	     22.09335835	     90.00000001	      0.00000000	      0.00000000
      1.09000000	      1.36990585	     -1.86700431	      6.17181482	     -0.82859418	      0.90553306	     -0.23607152	      9.62950287	     -7.96671471	     -9.11575747	     52.48457278	      9.45729621	      0.91602860	     11.35155920	     -5.01155959	     -7.58338718	      0.39453643	     -7.65691406	      0.20878251	     10.34885908	     17.36714717	      0.18062166	     11.83999102	      5.23843649	     -7.58338718	    -12.63732985	      4.65943327	     -4.13614427	     -3.70027506	    -13.83235137	     -4.95652022	     17.08062579	     90.00000001	      0.00000000	      0.00000000	     -7.56355343	    -11.86289919	      2.37251754	     22.25375876	     90.00000001	      0.00000000	      0.00000000
